<svg xmlns="http://www.w3.org/2000/svg" xmlns:xlink="http://www.w3.org/1999/xlink" xmlns:lucid="lucid" width="962.33" height="901.96"><g transform="translate(-174.75204498974352 -70.66666666666667)" lucid:page-tab-id="n0DnsllIAq4K"><path d="M0 0h1760v1360H0z" fill="#fff"/><path d="M469.33 535a6 6 0 0 1 6-6h361.34a6 6 0 0 1 6 6v29.33a6 6 0 0 1-6 6H475.33a6 6 0 0 1-6-6z" stroke="#000" stroke-opacity="0" stroke-width="3" fill="#edf5ff"/><path d="M382 464a6 6 0 0 1 6-6h536a6 6 0 0 1 6 6v117a6 6 0 0 1-6 6H388a6 6 0 0 1-6-6z" stroke="#000" stroke-opacity="0" stroke-width="3" fill="#fff" fill-opacity="0"/><use xlink:href="#a" transform="matrix(1,0,0,1,386.9999999999612,463) translate(123.45061728395063 40.09027777777778)"/><use xlink:href="#b" transform="matrix(1,0,0,1,386.9999999999612,463) translate(196.16666666666669 40.09027777777778)"/><use xlink:href="#c" transform="matrix(1,0,0,1,386.9999999999612,463) translate(359.9938271604938 40.09027777777778)"/><use xlink:href="#d" transform="matrix(1,0,0,1,386.9999999999612,463) translate(269.5 66.75694444444446)"/><use xlink:href="#e" transform="matrix(1,0,0,1,386.9999999999612,463) translate(102.80620659722217 93.41927083333334)"/><path d="M329.33 396.33a6 6 0 0 1 6-6h644a6 6 0 0 1 6 6v211.34a6 6 0 0 1-6 6h-644a6 6 0 0 1-6-6z" fill-opacity="0"/><path d="M347.4 390.33h8.06m8.05 0h8.06m8.05 0h8.06m8.05 0h8.06m8.05 0h8.06m8.05 0h8.06m8.05 0h8.06m8.05 0h8.06m8.05 0h8.06m8.05 0h8.06m8.05 0h8.06m8.05 0h8.06m8.05 0h8.06m8.05 0h8.06m8.05 0h8.06m8.05 0h8.06m8.05 0h8.06m8.05 0h8.06m8.05 0h8.06m8.05 0h8.06m8.05 0h8.06m8.05 0h8.06m8.05 0h8.06m8.05 0h8.06m8.05 0h8.06m8.05 0h8.06m8.05 0h8.06m8.05 0h8.06m8.05 0h8.06m8.05 0h8.06m8.05 0h8.06m8.05 0h8.06m8.05 0h8.06m8.05 0h8.06m8.05 0h8.06m8.05 0h8.06m8.05 0h8.06m8.05 0h8.06m8.05 0h8.06m8.05 0h4.03l.94.08.92.23.86.36.8.48.72.6.6.73.5.8.36.88.22.9.07.95v4.07m0 8.13v8.12m0 8.13v8.13m0 8.14v8.13m0 8.13v8.12m0 8.13v8.13m0 8.13v8.14m0 8.12v8.13m0 8.12v8.13m0 8.13v8.13m0 8.13v8.13m0 8.13v8.12m0 8.13v8.12m0 8.13v4.07l-.07.94-.22.92-.36.87-.5.8-.6.7-.72.62-.8.5-.87.35-.93.22-.94.07h-4.02m-8.04 0h-8.05m-8.04 0h-8.05m-8.04 0H927m-8.04 0h-8.05m-8.04 0h-8.05m-8.04 0h-8.05m-8.04 0h-8.05m-8.04 0h-8.05m-8.04 0h-8.05m-8.04 0h-8.05m-8.04 0h-8.05m-8.04 0h-8.05m-8.04 0H766m-8.04 0h-8.05m-8.04 0h-8.05m-8.04 0h-8.05m-8.04 0h-8.05m-8.04 0h-8.05m-8.04 0h-8.05m-8.04 0h-8.05m-8.04 0h-8.05m-8.04 0h-8.05m-8.04 0H605m-8.04 0h-8.05m-8.04 0h-8.05m-8.04 0h-8.05m-8.04 0h-8.05m-8.04 0h-8.05m-8.04 0h-8.05m-8.04 0h-8.05m-8.04 0h-8.05m-8.04 0h-8.05m-8.04 0H444m-8.04 0h-8.05m-8.04 0h-8.05m-8.04 0h-8.05m-8.04 0h-8.05m-8.04 0h-8.05m-8.04 0h-8.05m-8.04 0h-4.03l-.94-.08-.92-.23-.87-.36-.8-.48-.7-.6-.62-.73-.5-.8-.35-.88-.22-.9-.07-.95v-4.07m0-8.13v-8.12m0-8.13v-8.13m0-8.14v-8.13m0-8.13v-8.12m0-8.13v-8.13m0-8.13v-8.14m0-8.12v-8.13m0-8.12v-8.13m0-8.13v-8.13m0-8.13v-8.13m0-8.13v-8.12m0-8.13v-8.12m0-8.13v-4.07l.08-.94.23-.92.36-.87.48-.8.6-.7.73-.62.8-.5.88-.35.9-.22.95-.07h4.03" stroke="#000" stroke-width="2" fill="none"/><path d="M194.75 673.3a6 6 0 0 1 6-6h910.34a6 6 0 0 1 6 6V946.6a6 6 0 0 1-6 6H200.74a6 6 0 0 1-6-6z" fill-opacity="0"/><path d="M212.73 667.3h8m7.97 0h8m7.97 0h8m7.97 0h8m7.97 0h8m7.98 0h8m7.98 0h7.98m7.98 0h8m7.98 0h7.98m8 0h7.97m8 0h7.97m8 0h7.97m7.98 0h8m7.97 0h7.98m8 0h7.98m8 0h7.98m7.98 0h8m7.97 0h8m7.97 0h8m7.97 0h8m7.98 0h7.98m8 0h7.97m8 0h7.97m8 0h7.97m8 0H604m8 0h8m7.97 0h8m7.97 0h8m7.97 0h8m7.98 0h8m7.97 0h8m7.97 0h8m7.97 0h7.98m8 0h7.97m8 0h7.97m8 0h7.97m7.98 0h7.98m8 0h7.97m8 0h7.97m8 0h7.98m7.98 0h8m7.97 0h8m7.97 0h8m7.97 0h8m7.97 0h8m7.97 0h8m8 0h7.97m8 0h7.97m8 0h7.97m8 0h7.98m8 0h7.97m8 0h7.97m8 0h7.97m7.98 0h8m7.97 0h8m7.97 0h8m7.97 0h4l.92.06.92.22.87.36.8.5.73.6.6.72.5.8.36.88.2.9.1.95v4m0 8.05v8.04m0 8.03v8.04m0 8.03v8.04m0 8.04v8.04m0 8.04v8.04m0 8.04v8.04m0 8.04v8.04m0 8.04v8.04m0 8.03V822m0 8.05v8.04m0 8.03v8.04m0 8.04v8.05m0 8.04v8.03m0 8.04v8.04m0 8.05v8.03m0 8.04v8.04m0 8.04v4.02l-.1.94-.2.92-.37.87-.5.8-.6.72-.72.6-.8.5-.86.36-.92.22-.93.07h-4m-8 0h-7.98m-7.98 0h-8m-7.97 0h-8m-7.98 0h-8m-7.98 0h-7.98m-8 0h-7.97m-8 0h-7.97m-8 0h-7.97m-8 0h-7.97m-8 0h-7.98m-7.98 0h-8m-7.97 0h-8m-7.97 0h-8m-7.97 0h-8m-7.98 0h-8m-7.97 0h-8m-7.97 0h-8m-7.98 0h-7.98m-8 0h-7.97m-8 0h-7.97m-8 0h-7.97m-7.98 0h-7.98m-8 0h-7.98m-7.98 0h-8m-7.97 0h-7.98m-7.98 0h-8m-7.97 0h-8m-7.97 0h-8m-7.97 0h-8m-7.97 0h-8m-7.98 0H612m-8 0h-7.97m-8 0h-7.97m-8 0h-7.97m-8 0h-7.98m-8 0h-7.98m-7.98 0h-8m-7.97 0h-8m-7.98 0h-8m-7.97 0h-8m-7.97 0h-8m-7.97 0h-7.98m-8 0h-7.97m-8 0h-7.97m-8 0h-7.97m-7.98 0h-7.98m-8 0h-7.97m-8 0h-7.97m-8 0h-7.98m-7.98 0h-8m-7.97 0h-8m-7.97 0h-8m-7.97 0h-8m-7.97 0h-8m-7.97 0h-8m-7.98 0h-8m-7.97 0h-4l-.94-.07-.9-.22-.87-.36-.8-.5-.72-.6-.6-.72-.5-.8-.35-.87-.22-.92-.08-.94v-4.02m0-8.04v-8.04m0-8.03v-8.05m0-8.04v-8.03m0-8.04v-8.04m0-8.05v-8.04m0-8.03v-8.04m0-8.04v-8.05m0-8.03v-8.04m0-8.04v-8.04m0-8.04v-8.04m0-8.04v-8.04m0-8.04v-8.04m0-8.04v-8.04m0-8.04v-8.03m0-8.03v-8.04m0-8.04v-8.05m0-8.04v-4l.08-.95.22-.92.36-.86.5-.8.6-.72.72-.62.8-.5.88-.35.9-.22.95-.07h4" stroke="#000" stroke-width="2" fill="none"/><path d="M329.33 96.67a6 6 0 0 1 6-6h644a6 6 0 0 1 6 6V331a6 6 0 0 1-6 6h-644a6 6 0 0 1-6-6z" fill-opacity="0"/><path d="M347.4 90.67h8.06m8.05 0h8.06m8.05 0h8.06m8.05 0h8.06m8.05 0h8.06m8.05 0h8.06m8.05 0h8.06m8.05 0h8.06m8.05 0h8.06m8.05 0h8.06m8.05 0h8.06m8.05 0h8.06m8.05 0h8.06m8.05 0h8.06m8.05 0h8.06m8.05 0h8.06m8.05 0h8.06m8.05 0h8.06m8.05 0h8.06m8.05 0h8.06m8.05 0h8.06m8.05 0h8.06m8.05 0h8.06m8.05 0h8.06m8.05 0h8.06m8.05 0h8.06m8.05 0h8.06m8.05 0h8.06m8.05 0h8.06m8.05 0h8.06m8.05 0h8.06m8.05 0h8.06m8.05 0h8.06m8.05 0h8.06m8.05 0h8.06m8.05 0h8.06m8.05 0h8.06m8.05 0h8.06m8.05 0h8.06m8.05 0h4.03l.94.07.92.22.86.36.8.5.72.6.6.72.5.8.36.87.22.93.07.94v3.9m0 7.8v7.82m0 7.8v7.82m0 7.8v7.82m0 7.8v7.82m0 7.8v7.82m0 7.8v7.83m0 7.82v7.8m0 7.82v7.8m0 7.82v7.8m0 7.82v7.8m0 7.83v7.82m0 7.8v7.82m0 7.8v7.82m0 7.8v7.82m0 7.8V331l-.07.94-.22.9-.36.88-.5.8-.6.72-.72.6-.8.5-.87.37-.93.23-.94.07h-4.02m-8.04 0h-8.05m-8.04 0h-8.05m-8.04 0H927m-8.04 0h-8.05m-8.04 0h-8.05m-8.04 0h-8.05m-8.04 0h-8.05m-8.04 0h-8.05m-8.04 0h-8.05m-8.04 0h-8.05m-8.04 0h-8.05m-8.04 0h-8.05m-8.04 0H766m-8.04 0h-8.05m-8.04 0h-8.05m-8.04 0h-8.05m-8.04 0h-8.05m-8.04 0h-8.05m-8.04 0h-8.05m-8.04 0h-8.05m-8.04 0h-8.05m-8.04 0h-8.05m-8.04 0H605m-8.04 0h-8.05m-8.04 0h-8.05m-8.04 0h-8.05m-8.04 0h-8.05m-8.04 0h-8.05m-8.04 0h-8.05m-8.04 0h-8.05m-8.04 0h-8.05m-8.04 0h-8.05m-8.04 0H444m-8.04 0h-8.05m-8.04 0h-8.05m-8.04 0h-8.05m-8.04 0h-8.05m-8.04 0h-8.05m-8.04 0h-8.05m-8.04 0h-4.03l-.94-.07-.92-.22-.87-.35-.8-.5-.7-.6-.62-.72-.5-.8-.35-.88-.22-.9-.07-.95v-3.9m0-7.82v-7.8m0-7.82v-7.8m0-7.82v-7.8m0-7.82v-7.8m0-7.83v-7.82m0-7.8v-7.82m0-7.8v-7.82m0-7.8v-7.82m0-7.8v-7.83m0-7.82v-7.8m0-7.82v-7.8m0-7.82v-7.8m0-7.82v-7.8m0-7.83v-7.82m0-7.8v-3.9l.08-.95.23-.92.36-.86.48-.8.6-.72.73-.6.8-.5.88-.36.9-.22.95-.07h4.03" stroke="#000" stroke-width="2" fill="none"/><path d="M390.33 145a6 6 0 0 1 6-6h580a6 6 0 0 1 6 6v211.33a6 6 0 0 1-6 6h-580a6 6 0 0 1-6-6z" stroke="#000" stroke-opacity="0" stroke-width="3" fill="#fff" fill-opacity="0"/><use xlink:href="#f" transform="matrix(1,0,0,1,395.3333333333333,144.00000000000003) translate(0 44.52777777777778)"/><use xlink:href="#g" transform="matrix(1,0,0,1,395.3333333333333,144.00000000000003) translate(74.01234567901234 44.52777777777778)"/><use xlink:href="#h" transform="matrix(1,0,0,1,395.3333333333333,144.00000000000003) translate(149.19753086419752 44.52777777777778)"/><use xlink:href="#i" transform="matrix(1,0,0,1,395.3333333333333,144.00000000000003) translate(224.38271604938268 44.52777777777778)"/><use xlink:href="#j" transform="matrix(1,0,0,1,395.3333333333333,144.00000000000003) translate(336.5432098765432 44.52777777777778)"/><use xlink:href="#k" transform="matrix(1,0,0,1,395.3333333333333,144.00000000000003) translate(474.5679012345679 44.52777777777778)"/><use xlink:href="#l" transform="matrix(1,0,0,1,395.3333333333333,144.00000000000003) translate(0 71.19444444444446)"/><use xlink:href="#m" transform="matrix(1,0,0,1,395.3333333333333,144.00000000000003) translate(0 97.86111111111111)"/><use xlink:href="#n" transform="matrix(1,0,0,1,395.3333333333333,144.00000000000003) translate(96.17283950617283 97.86111111111111)"/><use xlink:href="#o" transform="matrix(1,0,0,1,395.3333333333333,144.00000000000003) translate(147.96296296296296 97.86111111111111)"/><use xlink:href="#p" transform="matrix(1,0,0,1,395.3333333333333,144.00000000000003) translate(265 97.86111111111111)"/><use xlink:href="#l" transform="matrix(1,0,0,1,395.3333333333333,144.00000000000003) translate(0 124.5277777777778)"/><use xlink:href="#q" transform="matrix(1,0,0,1,395.3333333333333,144.00000000000003) translate(0 151.19444444444446)"/><use xlink:href="#h" transform="matrix(1,0,0,1,395.3333333333333,144.00000000000003) translate(72.71604938271605 151.19444444444446)"/><use xlink:href="#r" transform="matrix(1,0,0,1,395.3333333333333,144.00000000000003) translate(147.9012345679012 151.19444444444446)"/><use xlink:href="#s" transform="matrix(1,0,0,1,395.3333333333333,144.00000000000003) translate(241.6049382716049 151.19444444444446)"/><use xlink:href="#t" transform="matrix(1,0,0,1,395.3333333333333,144.00000000000003) translate(319.3827160493827 151.19444444444446)"/><use xlink:href="#u" transform="matrix(1,0,0,1,395.3333333333333,144.00000000000003) translate(0 177.86111111111111)"/><path d="M329.33 96.67a6 6 0 0 1 6-6h644a6 6 0 0 1 6 6v32.7a6 6 0 0 1-6 6h-644a6 6 0 0 1-6-6z" stroke="#fcce14" stroke-width="3" fill="#fcce14"/><path d="M488.94 96.02h334.12v34H488.94z" fill="#fff" fill-opacity="0"/><use xlink:href="#v" transform="matrix(1,0,0,1,493.9382716048997,101.02215530769013) translate(77.50000000000001 19.34027777777778)"/><path d="M385 180.33c0 8.47-7.16 15.34-16 15.34s-16-6.87-16-15.34c0-8.47 7.16-15.33 16-15.33s16 6.87 16 15.33z" stroke="#000" stroke-width="3" fill="#fff"/><use xlink:href="#w" transform="matrix(1,0,0,1,358,170) translate(4.827160493827161 17.77777777777778)"/><path d="M385 234.33c0 8.47-7.16 15.34-16 15.34s-16-6.87-16-15.34c0-8.47 7.16-15.33 16-15.33s16 6.87 16 15.33z" stroke="#000" stroke-width="3" fill="#fff"/><use xlink:href="#x" transform="matrix(1,0,0,1,358,224) translate(4.827160493827161 17.77777777777778)"/><path d="M385 288.33c0 8.47-7.16 15.34-16 15.34s-16-6.87-16-15.34c0-8.46 7.16-15.33 16-15.33s16 6.87 16 15.33z" stroke="#000" stroke-width="3" fill="#fff"/><use xlink:href="#y" transform="matrix(1,0,0,1,358,278) translate(4.827160493827161 17.77777777777778)"/><path d="M657.33 339v31.32" stroke="#000" stroke-width="2" fill="none"/><path d="M658.33 339.03h-2V338h2z" stroke="#000" stroke-width=".05"/><path d="M657.33 385.6l-4.63-14.27h9.27z" stroke="#000" stroke-width="2"/><path d="M329.33 396.33a6 6 0 0 1 6-6h644a6 6 0 0 1 6 6v32.7a6 6 0 0 1-6 6h-644a6 6 0 0 1-6-6z" stroke="#cfe4ff" stroke-width="3" fill="#cfe4ff"/><path d="M488.94 395.7h334.12v34H488.94z" fill="#fff" fill-opacity="0"/><g><use xlink:href="#z" transform="matrix(1,0,0,1,493.9382716048996,400.68882197435676) translate(99.07407407407408 19.34027777777778)"/></g><path d="M194.75 673.3a6 6 0 0 1 6-6h910.34a6 6 0 0 1 6 6V706a6 6 0 0 1-6 6H200.74a6 6 0 0 1-6-6z" stroke="#8cbd91" stroke-width="3" fill="#8cbd91"/><path d="M488.86 672.64h334.12v34H488.86z" fill="#fff" fill-opacity="0"/><g><use xlink:href="#A" transform="matrix(1,0,0,1,493.8569832613486,677.6445616923098) translate(71.38888888888891 19.34027777777778)"/></g><path d="M258.42 729.58a6 6 0 0 1 6-6h833.66a6 6 0 0 1 6 6V940.9a6 6 0 0 1-6 6H264.43a6 6 0 0 1-6-6z" stroke="#000" stroke-opacity="0" stroke-width="3" fill="#fff" fill-opacity="0"/><g><use xlink:href="#B" transform="matrix(1,0,0,1,263.41871165641015,728.5780957693172) translate(0 31.15277777777778)"/><use xlink:href="#C" transform="matrix(1,0,0,1,263.41871165641015,728.5780957693172) translate(56.79012345679013 31.15277777777778)"/><use xlink:href="#D" transform="matrix(1,0,0,1,263.41871165641015,728.5780957693172) translate(146.85185185185185 31.15277777777778)"/><use xlink:href="#E" transform="matrix(1,0,0,1,263.41871165641015,728.5780957693172) translate(234.3827160493827 31.15277777777778)"/><use xlink:href="#i" transform="matrix(1,0,0,1,263.41871165641015,728.5780957693172) translate(326.9753086419753 31.15277777777778)"/><use xlink:href="#F" transform="matrix(1,0,0,1,263.41871165641015,728.5780957693172) translate(439.1358024691358 31.15277777777778)"/><use xlink:href="#G" transform="matrix(1,0,0,1,263.41871165641015,728.5780957693172) translate(527.9629629629629 31.15277777777778)"/><use xlink:href="#H" transform="matrix(1,0,0,1,263.41871165641015,728.5780957693172) translate(569.753086419753 31.15277777777778)"/><use xlink:href="#g" transform="matrix(1,0,0,1,263.41871165641015,728.5780957693172) translate(594.4444444444443 31.15277777777778)"/><use xlink:href="#I" transform="matrix(1,0,0,1,263.41871165641015,728.5780957693172) translate(669.6296296296296 31.15277777777778)"/><use xlink:href="#l" transform="matrix(1,0,0,1,263.41871165641015,728.5780957693172) translate(0 57.81944444444445)"/><use xlink:href="#J" transform="matrix(1,0,0,1,263.41871165641015,728.5780957693172) translate(0 84.48611111111111)"/><use xlink:href="#K" transform="matrix(1,0,0,1,263.41871165641015,728.5780957693172) translate(138.0246913580247 84.48611111111111)"/><use xlink:href="#D" transform="matrix(1,0,0,1,263.41871165641015,728.5780957693172) translate(213.20987654320987 84.48611111111111)"/><use xlink:href="#i" transform="matrix(1,0,0,1,263.41871165641015,728.5780957693172) translate(300.74074074074076 84.48611111111111)"/><use xlink:href="#L" transform="matrix(1,0,0,1,263.41871165641015,728.5780957693172) translate(412.90123456790127 84.48611111111111)"/><use xlink:href="#M" transform="matrix(1,0,0,1,263.41871165641015,728.5780957693172) translate(456.11111111111114 84.48611111111111)"/><use xlink:href="#N" transform="matrix(1,0,0,1,263.41871165641015,728.5780957693172) translate(541.1111111111111 84.48611111111111)"/><use xlink:href="#O" transform="matrix(1,0,0,1,263.41871165641015,728.5780957693172) translate(627.4074074074074 84.48611111111111)"/><use xlink:href="#P" transform="matrix(1,0,0,1,263.41871165641015,728.5780957693172) translate(0 111.1527777777778)"/><use xlink:href="#Q" transform="matrix(1,0,0,1,263.41871165641015,728.5780957693172) translate(0 137.81944444444446)"/><use xlink:href="#L" transform="matrix(1,0,0,1,263.41871165641015,728.5780957693172) translate(75.18518518518518 137.81944444444446)"/><use xlink:href="#R" transform="matrix(1,0,0,1,263.41871165641015,728.5780957693172) translate(118.39506172839506 137.81944444444446)"/><use xlink:href="#S" transform="matrix(1,0,0,1,263.41871165641015,728.5780957693172) translate(197.4074074074074 137.81944444444446)"/><use xlink:href="#T" transform="matrix(1,0,0,1,263.41871165641015,728.5780957693172) translate(317.037037037037 137.81944444444446)"/><use xlink:href="#P" transform="matrix(1,0,0,1,263.41871165641015,728.5780957693172) translate(0 164.48611111111111)"/><use xlink:href="#U" transform="matrix(1,0,0,1,263.41871165641015,728.5780957693172) translate(0 191.15277777777777)"/><use xlink:href="#V" transform="matrix(1,0,0,1,263.41871165641015,728.5780957693172) translate(45.617283950617285 191.15277777777777)"/><use xlink:href="#W" transform="matrix(1,0,0,1,263.41871165641015,728.5780957693172) translate(127.09876543209876 191.15277777777777)"/><use xlink:href="#g" transform="matrix(1,0,0,1,263.41871165641015,728.5780957693172) translate(224.07407407407408 191.15277777777777)"/><use xlink:href="#E" transform="matrix(1,0,0,1,263.41871165641015,728.5780957693172) translate(299.25925925925924 191.15277777777777)"/><use xlink:href="#i" transform="matrix(1,0,0,1,263.41871165641015,728.5780957693172) translate(391.85185185185185 191.15277777777777)"/><use xlink:href="#X" transform="matrix(1,0,0,1,263.41871165641015,728.5780957693172) translate(504.01234567901236 191.15277777777777)"/><use xlink:href="#S" transform="matrix(1,0,0,1,263.41871165641015,728.5780957693172) translate(549.5679012345679 191.15277777777777)"/><use xlink:href="#Y" transform="matrix(1,0,0,1,263.41871165641015,728.5780957693172) translate(669.1975308641976 191.15277777777777)"/><use xlink:href="#Z" transform="matrix(1,0,0,1,263.41871165641015,728.5780957693172) translate(738.2716049382716 191.15277777777777)"/></g><path d="M249.42 752.62c0 8.47-7.16 15.34-16 15.34s-16-6.87-16-15.34c0-8.47 7.16-15.33 16-15.33s16 6.85 16 15.32z" stroke="#000" stroke-width="3" fill="#fff"/><g><use xlink:href="#w" transform="matrix(1,0,0,1,222.4187116564488,742.2890730512863) translate(4.827160493827161 17.77777777777778)"/></g><path d="M249.42 805.25c0 8.46-7.16 15.33-16 15.33s-16-6.87-16-15.34c0-8.46 7.16-15.33 16-15.33s16 6.88 16 15.35z" stroke="#000" stroke-width="3" fill="#fff"/><g><use xlink:href="#x" transform="matrix(1,0,0,1,222.4187116564488,794.9114291026117) translate(4.827160493827161 17.77777777777778)"/></g><path d="M249.42 857.87c0 8.47-7.16 15.33-16 15.33s-16-6.87-16-15.33c0-8.47 7.16-15.34 16-15.34s16 6.87 16 15.34z" stroke="#000" stroke-width="3" fill="#fff"/><g><use xlink:href="#y" transform="matrix(1,0,0,1,222.4187116564488,847.5337851539371) translate(4.827160493827161 17.77777777777778)"/></g><path d="M249.42 910.5c0 8.46-7.16 15.32-16 15.32s-16-6.86-16-15.33c0-8.48 7.16-15.34 16-15.34s16 6.86 16 15.33z" stroke="#000" stroke-width="3" fill="#fff"/><g><use xlink:href="#aa" transform="matrix(1,0,0,1,222.4187116564488,900.1561412052624) translate(4.827160493827161 17.77777777777778)"/></g><path d="M657.33 615.67V647.3" stroke="#000" stroke-width="2" fill="none"/><path d="M658.33 615.7h-2v-1.03h2z" stroke="#000" stroke-width=".05"/><path d="M657.33 662.55l-4.63-14.26h9.27z" stroke="#000" stroke-width="2"/><defs><path d="M212-179c-10-28-35-45-73-45-59 0-87 40-87 99 0 60 29 101 89 101 43 0 62-24 78-52l27 14C228-24 195 4 139 4 59 4 22-46 18-125c-6-104 99-153 187-111 19 9 31 26 39 46" id="ab"/><path d="M114-163C36-179 61-72 57 0H25l-1-190h30c1 12-1 29 2 39 6-27 23-49 58-41v29" id="ac"/><path d="M100-194c63 0 86 42 84 106H49c0 40 14 67 53 68 26 1 43-12 49-29l28 8c-11 28-37 45-77 45C44 4 14-33 15-96c1-61 26-98 85-98zm52 81c6-60-76-77-97-28-3 7-6 17-6 28h103" id="ad"/><path d="M141-36C126-15 110 5 73 4 37 3 15-17 15-53c-1-64 63-63 125-63 3-35-9-54-41-54-24 1-41 7-42 31l-33-3c5-37 33-52 76-52 45 0 72 20 72 64v82c-1 20 7 32 28 27v20c-31 9-61-2-59-35zM48-53c0 20 12 33 32 33 41-3 63-29 60-74-43 2-92-5-92 41" id="ae"/><path d="M59-47c-2 24 18 29 38 22v24C64 9 27 4 27-40v-127H5v-23h24l9-43h21v43h35v23H59v120" id="af"/><g id="a"><use transform="matrix(0.06172839506172839,0,0,0.06172839506172839,0,0)" xlink:href="#ab"/><use transform="matrix(0.06172839506172839,0,0,0.06172839506172839,15.987654320987653,0)" xlink:href="#ac"/><use transform="matrix(0.06172839506172839,0,0,0.06172839506172839,23.333333333333332,0)" xlink:href="#ad"/><use transform="matrix(0.06172839506172839,0,0,0.06172839506172839,35.67901234567901,0)" xlink:href="#ae"/><use transform="matrix(0.06172839506172839,0,0,0.06172839506172839,48.02469135802469,0)" xlink:href="#af"/><use transform="matrix(0.06172839506172839,0,0,0.06172839506172839,54.19753086419753,0)" xlink:href="#ad"/></g><path d="M24 0v-261h32V0H24" id="ag"/><path d="M100-194c62-1 85 37 85 99 1 63-27 99-86 99S16-35 15-95c0-66 28-99 85-99zM99-20c44 1 53-31 53-75 0-43-8-75-51-75s-53 32-53 75 10 74 51 75" id="ah"/><path d="M84 4C-5 8 30-112 23-190h32v120c0 31 7 50 39 49 72-2 45-101 50-169h31l1 190h-30c-1-10 1-25-2-33-11 22-28 36-60 37" id="ai"/><path d="M85-194c31 0 48 13 60 33l-1-100h32l1 261h-30c-2-10 0-23-3-31C134-8 116 4 85 4 32 4 16-35 15-94c0-66 23-100 70-100zm9 24c-40 0-46 34-46 75 0 40 6 74 45 74 42 0 51-32 51-76 0-42-9-74-50-73" id="aj"/><path d="M63-220v92h138v28H63V0H30v-248h175v28H63" id="ak"/><path d="M210-169c-67 3-38 105-44 169h-31v-121c0-29-5-50-35-48C34-165 62-65 56 0H25l-1-190h30c1 10-1 24 2 32 10-44 99-50 107 0 11-21 27-35 58-36 85-2 47 119 55 194h-31v-121c0-29-5-49-35-48" id="al"/><path d="M24-231v-30h32v30H24zM24 0v-190h32V0H24" id="am"/><path d="M117-194c89-4 53 116 60 194h-32v-121c0-31-8-49-39-48C34-167 62-67 57 0H25l-1-190h30c1 10-1 24 2 32 11-22 29-35 61-36" id="an"/><g id="b"><use transform="matrix(0.06172839506172839,0,0,0.06172839506172839,0,0)" xlink:href="#ab"/><use transform="matrix(0.06172839506172839,0,0,0.06172839506172839,15.987654320987653,0)" xlink:href="#ag"/><use transform="matrix(0.06172839506172839,0,0,0.06172839506172839,20.864197530864196,0)" xlink:href="#ah"/><use transform="matrix(0.06172839506172839,0,0,0.06172839506172839,33.20987654320987,0)" xlink:href="#ai"/><use transform="matrix(0.06172839506172839,0,0,0.06172839506172839,45.55555555555555,0)" xlink:href="#aj"/><use transform="matrix(0.06172839506172839,0,0,0.06172839506172839,57.90123456790123,0)" xlink:href="#ak"/><use transform="matrix(0.06172839506172839,0,0,0.06172839506172839,71.41975308641975,0)" xlink:href="#ah"/><use transform="matrix(0.06172839506172839,0,0,0.06172839506172839,83.76543209876543,0)" xlink:href="#ac"/><use transform="matrix(0.06172839506172839,0,0,0.06172839506172839,91.11111111111111,0)" xlink:href="#al"/><use transform="matrix(0.06172839506172839,0,0,0.06172839506172839,109.5679012345679,0)" xlink:href="#ae"/><use transform="matrix(0.06172839506172839,0,0,0.06172839506172839,121.91358024691358,0)" xlink:href="#af"/><use transform="matrix(0.06172839506172839,0,0,0.06172839506172839,128.08641975308643,0)" xlink:href="#am"/><use transform="matrix(0.06172839506172839,0,0,0.06172839506172839,132.96296296296296,0)" xlink:href="#ah"/><use transform="matrix(0.06172839506172839,0,0,0.06172839506172839,145.30864197530863,0)" xlink:href="#an"/></g><path d="M185-189c-5-48-123-54-124 2 14 75 158 14 163 119 3 78-121 87-175 55-17-10-28-26-33-46l33-7c5 56 141 63 141-1 0-78-155-14-162-118-5-82 145-84 179-34 5 7 8 16 11 25" id="ao"/><path d="M96-169c-40 0-48 33-48 73s9 75 48 75c24 0 41-14 43-38l32 2c-6 37-31 61-74 61-59 0-76-41-82-99-10-93 101-131 147-64 4 7 5 14 7 22l-32 3c-4-21-16-35-41-35" id="ap"/><path d="M143 0L79-87 56-68V0H24v-261h32v163l83-92h37l-77 82L181 0h-38" id="aq"/><g id="c"><use transform="matrix(0.06172839506172839,0,0,0.06172839506172839,0,0)" xlink:href="#ao"/><use transform="matrix(0.06172839506172839,0,0,0.06172839506172839,14.814814814814813,0)" xlink:href="#af"/><use transform="matrix(0.06172839506172839,0,0,0.06172839506172839,20.98765432098765,0)" xlink:href="#ae"/><use transform="matrix(0.06172839506172839,0,0,0.06172839506172839,33.33333333333333,0)" xlink:href="#ap"/><use transform="matrix(0.06172839506172839,0,0,0.06172839506172839,44.44444444444444,0)" xlink:href="#aq"/></g><path d="M617-1102c355 0 481 238 477 599H322c5 222 84 388 301 388 144 0 244-59 284-166l158 45C1002-72 854 20 623 20c-342 0-490-220-490-568 0-346 151-554 484-554zm291 461c-18-192-90-328-289-328-194 0-287 128-295 328h584" id="ar"/><path d="M932 0L611-444 288 0H94l415-556-397-526h199l300 421 298-421h201L713-558 1133 0H932" id="as"/><path d="M682 16c-209 0-323-80-324-285v-671H190v-142h170l58-282h120v282h432v142H538v652c2 114 60 155 182 155 106 0 209-16 297-34v137C921-4 806 16 682 16" id="at"/><path d="M839-1102c70 0 148 7 206 17v167c-112-18-268-36-363 15-129 69-208 203-208 395V0H294c-10-367 32-789-52-1082h171c21 75 41 161 48 250h5c67-152 152-270 373-270" id="au"/><path d="M706-1102c241 0 344 136 343 381V0H868v-695c1-168-57-273-220-268-190 6-283 138-283 336V0H185c-3-360 6-732-6-1082h170c4 54 7 126 8 185h3c63-121 164-204 346-205" id="av"/><path d="M1000-272c3 95 12 159 101 161 21 0 41-3 59-7V-6c-44 10-86 16-139 16-141 2-191-84-197-217h-6C748-76 648 20 446 20c-207 0-318-120-318-322 0-266 194-348 454-354l236-4c12-191-40-305-222-305-140 0-220 47-232 172l-188-17c33-204 181-292 423-292 255 0 401 118 401 364v466zm-683-27c0 109 63 184 175 182 166-3 259-96 306-217 24-65 20-120 20-200-232 7-501-28-501 235" id="aw"/><path d="M736-142h380V0H134v-142h422v-1200H267v-142h469v1342" id="ax"/><path d="M334-464v-160h560v160H334" id="ay"/><path d="M698-1104c312 3 392 244 392 558 0 315-82 566-392 566-169 0-277-65-331-184h-5c8 188 2 394 4 589H185V-858c0-76-1-156-6-224h175c6 52 9 120 10 178h4c58-122 150-202 330-200zm-49 991c225 0 255-203 255-433 0-225-32-419-253-419-236 0-285 192-285 441 0 237 53 411 283 411" id="az"/><path d="M615-1102c343 0 484 203 482 560-1 347-147 562-488 562-336 0-475-219-479-562-4-349 156-560 485-560zm-8 989c240 0 301-180 301-429 0-245-55-427-290-427-236 0-299 181-299 427 0 243 61 429 288 429" id="aA"/><path d="M631 20c-350 0-501-215-501-562 0-355 162-560 502-560 250 0 399 118 446 323l-192 14c-23-124-109-196-262-196-242 0-305 171-305 415 1 245 61 427 304 427 151 0 248-77 267-215l190 12C1039-107 883 20 631 20" id="aB"/><path d="M873-819c-18-114-119-146-250-146-163 0-245 50-245 151 0 151 170 148 294 185 182 54 388 94 388 320 0 240-189 325-439 329-245 4-410-69-454-268l159-31c24 133 136 168 295 165 144-2 270-31 270-171 0-164-195-160-331-202-167-52-350-87-350-299 0-218 173-315 413-313 220 2 373 77 412 260" id="aC"/><path d="M496 0v-299h235V0H496" id="aD"/><path d="M168 279c222 39 310-114 368-290L66-1082h192c120 299 249 590 362 896 115-301 235-597 351-896h190L705 0c-65 164-130 320-275 396-67 36-177 35-262 18V279" id="aE"/><path d="M904-1102c199 0 220 177 220 381V0H956v-686c-3-114 0-215-60-264-70-33-125-4-158 71-26 56-39 140-39 252V0H531v-686c-3-114-1-215-61-264-78-41-136 24-157 84-24 69-39 159-39 259V0H105c-3-360 6-732-6-1082h149c6 50 3 123 8 175 36-100 83-195 216-195 135 0 166 79 196 196 42-105 93-196 236-196" id="aF"/><g id="e"><use transform="matrix(0.010850694444444444,0,0,0.010850694444444444,0,0)" xlink:href="#ar"/><use transform="matrix(0.010850694444444444,0,0,0.010850694444444444,13.335503472222221,0)" xlink:href="#as"/><use transform="matrix(0.010850694444444444,0,0,0.010850694444444444,26.671006944444443,0)" xlink:href="#at"/><use transform="matrix(0.010850694444444444,0,0,0.010850694444444444,40.006510416666664,0)" xlink:href="#ar"/><use transform="matrix(0.010850694444444444,0,0,0.010850694444444444,53.342013888888886,0)" xlink:href="#au"/><use transform="matrix(0.010850694444444444,0,0,0.010850694444444444,66.67751736111111,0)" xlink:href="#av"/><use transform="matrix(0.010850694444444444,0,0,0.010850694444444444,80.01302083333334,0)" xlink:href="#aw"/><use transform="matrix(0.010850694444444444,0,0,0.010850694444444444,93.34852430555557,0)" xlink:href="#ax"/><use transform="matrix(0.010850694444444444,0,0,0.010850694444444444,106.6840277777778,0)" xlink:href="#ay"/><use transform="matrix(0.010850694444444444,0,0,0.010850694444444444,120.01953125000003,0)" xlink:href="#au"/><use transform="matrix(0.010850694444444444,0,0,0.010850694444444444,133.35503472222226,0)" xlink:href="#ar"/><use transform="matrix(0.010850694444444444,0,0,0.010850694444444444,146.69053819444449,0)" xlink:href="#az"/><use transform="matrix(0.010850694444444444,0,0,0.010850694444444444,160.0260416666667,0)" xlink:href="#aA"/><use transform="matrix(0.010850694444444444,0,0,0.010850694444444444,173.36154513888894,0)" xlink:href="#ay"/><use transform="matrix(0.010850694444444444,0,0,0.010850694444444444,186.69704861111117,0)" xlink:href="#aw"/><use transform="matrix(0.010850694444444444,0,0,0.010850694444444444,200.0325520833334,0)" xlink:href="#aB"/><use transform="matrix(0.010850694444444444,0,0,0.010850694444444444,213.36805555555563,0)" xlink:href="#aB"/><use transform="matrix(0.010850694444444444,0,0,0.010850694444444444,226.70355902777786,0)" xlink:href="#ar"/><use transform="matrix(0.010850694444444444,0,0,0.010850694444444444,240.03906250000006,0)" xlink:href="#aC"/><use transform="matrix(0.010850694444444444,0,0,0.010850694444444444,253.37456597222234,0)" xlink:href="#aC"/><use transform="matrix(0.010850694444444444,0,0,0.010850694444444444,266.7100694444445,0)" xlink:href="#aD"/><use transform="matrix(0.010850694444444444,0,0,0.010850694444444444,280.04557291666674,0)" xlink:href="#aE"/><use transform="matrix(0.010850694444444444,0,0,0.010850694444444444,293.38107638888897,0)" xlink:href="#aw"/><use transform="matrix(0.010850694444444444,0,0,0.010850694444444444,306.7165798611112,0)" xlink:href="#aF"/><use transform="matrix(0.010850694444444444,0,0,0.010850694444444444,320.0520833333334,0)" xlink:href="#ax"/></g><path d="M143 4C61 4 22-44 18-125c-5-107 100-154 193-111 17 8 29 25 37 43l-32 9c-13-25-37-40-76-40-61 0-88 39-88 99 0 61 29 100 91 101 35 0 62-11 79-27v-45h-74v-28h105v86C228-13 192 4 143 4" id="aG"/><path d="M106-169C34-169 62-67 57 0H25v-261h32l-1 103c12-21 28-36 61-36 89 0 53 116 60 194h-32v-121c2-32-8-49-39-48" id="aH"/><g id="f"><use transform="matrix(0.06172839506172839,0,0,0.06172839506172839,0,0)" xlink:href="#aG"/><use transform="matrix(0.06172839506172839,0,0,0.06172839506172839,17.28395061728395,0)" xlink:href="#ae"/><use transform="matrix(0.06172839506172839,0,0,0.06172839506172839,29.629629629629626,0)" xlink:href="#af"/><use transform="matrix(0.06172839506172839,0,0,0.06172839506172839,35.80246913580247,0)" xlink:href="#aH"/><use transform="matrix(0.06172839506172839,0,0,0.06172839506172839,48.148148148148145,0)" xlink:href="#ad"/><use transform="matrix(0.06172839506172839,0,0,0.06172839506172839,60.49382716049382,0)" xlink:href="#ac"/></g><path d="M30-248c87 1 191-15 191 75 0 78-77 80-158 76V0H30v-248zm33 125c57 0 124 11 124-50 0-59-68-47-124-48v98" id="aI"/><path d="M108 0H70L1-190h34L89-25l56-165h34" id="aJ"/><g id="g"><use transform="matrix(0.06172839506172839,0,0,0.06172839506172839,0,0)" xlink:href="#aI"/><use transform="matrix(0.06172839506172839,0,0,0.06172839506172839,14.814814814814813,0)" xlink:href="#ac"/><use transform="matrix(0.06172839506172839,0,0,0.06172839506172839,22.160493827160494,0)" xlink:href="#am"/><use transform="matrix(0.06172839506172839,0,0,0.06172839506172839,27.037037037037038,0)" xlink:href="#aJ"/><use transform="matrix(0.06172839506172839,0,0,0.06172839506172839,38.14814814814815,0)" xlink:href="#ae"/><use transform="matrix(0.06172839506172839,0,0,0.06172839506172839,50.49382716049383,0)" xlink:href="#af"/><use transform="matrix(0.06172839506172839,0,0,0.06172839506172839,56.66666666666667,0)" xlink:href="#ad"/></g><path d="M197 0v-115H63V0H30v-248h33v105h134v-105h34V0h-34" id="aK"/><path d="M115-194c53 0 69 39 70 98 0 66-23 100-70 100C84 3 66-7 56-30L54 0H23l1-261h32v101c10-23 28-34 59-34zm-8 174c40 0 45-34 45-75 0-40-5-75-45-74-42 0-51 32-51 76 0 43 10 73 51 73" id="aL"/><g id="h"><use transform="matrix(0.06172839506172839,0,0,0.06172839506172839,0,0)" xlink:href="#aG"/><use transform="matrix(0.06172839506172839,0,0,0.06172839506172839,17.28395061728395,0)" xlink:href="#am"/><use transform="matrix(0.06172839506172839,0,0,0.06172839506172839,22.160493827160494,0)" xlink:href="#af"/><use transform="matrix(0.06172839506172839,0,0,0.06172839506172839,28.333333333333332,0)" xlink:href="#aK"/><use transform="matrix(0.06172839506172839,0,0,0.06172839506172839,44.32098765432099,0)" xlink:href="#ai"/><use transform="matrix(0.06172839506172839,0,0,0.06172839506172839,56.666666666666664,0)" xlink:href="#aL"/></g><path d="M233-177c-1 41-23 64-60 70L243 0h-38l-65-103H63V0H30v-248c88 3 205-21 203 71zM63-129c60-2 137 13 137-47 0-61-80-42-137-45v92" id="aM"/><path d="M115-194c55 1 70 41 70 98S169 2 115 4C84 4 66-9 55-30l1 105H24l-1-265h31l2 30c10-21 28-34 59-34zm-8 174c40 0 45-34 45-75s-6-73-45-74c-42 0-51 32-51 76 0 43 10 73 51 73" id="aN"/><path d="M135-143c-3-34-86-38-87 0 15 53 115 12 119 90S17 21 10-45l28-5c4 36 97 45 98 0-10-56-113-15-118-90-4-57 82-63 122-42 12 7 21 19 24 35" id="aO"/><path d="M179-190L93 31C79 59 56 82 12 73V49c39 6 53-20 64-50L1-190h34L92-34l54-156h33" id="aP"/><g id="i"><use transform="matrix(0.06172839506172839,0,0,0.06172839506172839,0,0)" xlink:href="#aM"/><use transform="matrix(0.06172839506172839,0,0,0.06172839506172839,15.987654320987653,0)" xlink:href="#ad"/><use transform="matrix(0.06172839506172839,0,0,0.06172839506172839,28.333333333333332,0)" xlink:href="#aN"/><use transform="matrix(0.06172839506172839,0,0,0.06172839506172839,40.67901234567901,0)" xlink:href="#ah"/><use transform="matrix(0.06172839506172839,0,0,0.06172839506172839,53.02469135802469,0)" xlink:href="#aO"/><use transform="matrix(0.06172839506172839,0,0,0.06172839506172839,64.1358024691358,0)" xlink:href="#am"/><use transform="matrix(0.06172839506172839,0,0,0.06172839506172839,69.01234567901234,0)" xlink:href="#af"/><use transform="matrix(0.06172839506172839,0,0,0.06172839506172839,75.18518518518518,0)" xlink:href="#ah"/><use transform="matrix(0.06172839506172839,0,0,0.06172839506172839,87.53086419753086,0)" xlink:href="#ac"/><use transform="matrix(0.06172839506172839,0,0,0.06172839506172839,94.87654320987654,0)" xlink:href="#aP"/></g><path d="M101-234c-31-9-42 10-38 44h38v23H63V0H32v-167H5v-23h27c-7-52 17-82 69-68v24" id="aQ"/><path d="M177-190C167-65 218 103 67 71c-23-6-38-20-44-43l32-5c15 47 100 32 89-28v-30C133-14 115 1 83 1 29 1 15-40 15-95c0-56 16-97 71-98 29-1 48 16 59 35 1-10 0-23 2-32h30zM94-22c36 0 50-32 50-73 0-42-14-75-50-75-39 0-46 34-46 75s6 73 46 73" id="aR"/><g id="j"><use transform="matrix(0.06172839506172839,0,0,0.06172839506172839,0,0)" xlink:href="#ab"/><use transform="matrix(0.06172839506172839,0,0,0.06172839506172839,15.987654320987653,0)" xlink:href="#ah"/><use transform="matrix(0.06172839506172839,0,0,0.06172839506172839,28.333333333333332,0)" xlink:href="#an"/><use transform="matrix(0.06172839506172839,0,0,0.06172839506172839,40.67901234567901,0)" xlink:href="#aQ"/><use transform="matrix(0.06172839506172839,0,0,0.06172839506172839,46.851851851851855,0)" xlink:href="#am"/><use transform="matrix(0.06172839506172839,0,0,0.06172839506172839,51.7283950617284,0)" xlink:href="#aR"/><use transform="matrix(0.06172839506172839,0,0,0.06172839506172839,64.07407407407408,0)" xlink:href="#ai"/><use transform="matrix(0.06172839506172839,0,0,0.06172839506172839,76.41975308641976,0)" xlink:href="#ac"/><use transform="matrix(0.06172839506172839,0,0,0.06172839506172839,83.76543209876544,0)" xlink:href="#ae"/><use transform="matrix(0.06172839506172839,0,0,0.06172839506172839,96.11111111111113,0)" xlink:href="#af"/><use transform="matrix(0.06172839506172839,0,0,0.06172839506172839,102.28395061728396,0)" xlink:href="#am"/><use transform="matrix(0.06172839506172839,0,0,0.06172839506172839,107.16049382716051,0)" xlink:href="#ah"/><use transform="matrix(0.06172839506172839,0,0,0.06172839506172839,119.50617283950619,0)" xlink:href="#an"/></g><g id="k"><use transform="matrix(0.06172839506172839,0,0,0.06172839506172839,0,0)" xlink:href="#ao"/><use transform="matrix(0.06172839506172839,0,0,0.06172839506172839,14.814814814814813,0)" xlink:href="#ad"/><use transform="matrix(0.06172839506172839,0,0,0.06172839506172839,27.160493827160494,0)" xlink:href="#af"/><use transform="matrix(0.06172839506172839,0,0,0.06172839506172839,33.333333333333336,0)" xlink:href="#af"/><use transform="matrix(0.06172839506172839,0,0,0.06172839506172839,39.50617283950618,0)" xlink:href="#am"/><use transform="matrix(0.06172839506172839,0,0,0.06172839506172839,44.38271604938272,0)" xlink:href="#an"/><use transform="matrix(0.06172839506172839,0,0,0.06172839506172839,56.7283950617284,0)" xlink:href="#aR"/><use transform="matrix(0.06172839506172839,0,0,0.06172839506172839,69.07407407407408,0)" xlink:href="#aO"/></g><path d="M30 0v-248h187v28H63v79h144v27H63v87h162V0H30" id="aS"/><g id="m"><use transform="matrix(0.06172839506172839,0,0,0.06172839506172839,0,0)" xlink:href="#aS"/><use transform="matrix(0.06172839506172839,0,0,0.06172839506172839,14.814814814814813,0)" xlink:href="#aO"/><use transform="matrix(0.06172839506172839,0,0,0.06172839506172839,25.925925925925924,0)" xlink:href="#af"/><use transform="matrix(0.06172839506172839,0,0,0.06172839506172839,32.098765432098766,0)" xlink:href="#ae"/><use transform="matrix(0.06172839506172839,0,0,0.06172839506172839,44.44444444444444,0)" xlink:href="#aL"/><use transform="matrix(0.06172839506172839,0,0,0.06172839506172839,56.79012345679012,0)" xlink:href="#ag"/><use transform="matrix(0.06172839506172839,0,0,0.06172839506172839,61.666666666666664,0)" xlink:href="#am"/><use transform="matrix(0.06172839506172839,0,0,0.06172839506172839,66.5432098765432,0)" xlink:href="#aO"/><use transform="matrix(0.06172839506172839,0,0,0.06172839506172839,77.65432098765432,0)" xlink:href="#aH"/></g><path d="M137 0h-34L2-248h35l83 218 83-218h36" id="aT"/><g id="n"><use transform="matrix(0.06172839506172839,0,0,0.06172839506172839,0,0)" xlink:href="#aT"/><use transform="matrix(0.06172839506172839,0,0,0.06172839506172839,14.814814814814813,0)" xlink:href="#aI"/><use transform="matrix(0.06172839506172839,0,0,0.06172839506172839,29.629629629629626,0)" xlink:href="#ab"/></g><path d="M190 0L58-211 59 0H30v-248h39L202-35l-2-213h31V0h-41" id="aU"/><path d="M206 0h-36l-40-164L89 0H53L-1-190h32L70-26l43-164h34l41 164 42-164h31" id="aV"/><g id="o"><use transform="matrix(0.06172839506172839,0,0,0.06172839506172839,0,0)" xlink:href="#aU"/><use transform="matrix(0.06172839506172839,0,0,0.06172839506172839,15.987654320987653,0)" xlink:href="#ad"/><use transform="matrix(0.06172839506172839,0,0,0.06172839506172839,28.333333333333332,0)" xlink:href="#af"/><use transform="matrix(0.06172839506172839,0,0,0.06172839506172839,34.50617283950617,0)" xlink:href="#aV"/><use transform="matrix(0.06172839506172839,0,0,0.06172839506172839,50.49382716049382,0)" xlink:href="#ah"/><use transform="matrix(0.06172839506172839,0,0,0.06172839506172839,62.8395061728395,0)" xlink:href="#ac"/><use transform="matrix(0.06172839506172839,0,0,0.06172839506172839,70.18518518518518,0)" xlink:href="#aq"/><use transform="matrix(0.06172839506172839,0,0,0.06172839506172839,81.29629629629629,0)" xlink:href="#am"/><use transform="matrix(0.06172839506172839,0,0,0.06172839506172839,86.17283950617283,0)" xlink:href="#an"/><use transform="matrix(0.06172839506172839,0,0,0.06172839506172839,98.51851851851852,0)" xlink:href="#aR"/></g><g id="p"><use transform="matrix(0.06172839506172839,0,0,0.06172839506172839,0,0)" xlink:href="#ab"/><use transform="matrix(0.06172839506172839,0,0,0.06172839506172839,15.987654320987653,0)" xlink:href="#ah"/><use transform="matrix(0.06172839506172839,0,0,0.06172839506172839,28.333333333333332,0)" xlink:href="#an"/><use transform="matrix(0.06172839506172839,0,0,0.06172839506172839,40.67901234567901,0)" xlink:href="#aQ"/><use transform="matrix(0.06172839506172839,0,0,0.06172839506172839,46.851851851851855,0)" xlink:href="#am"/><use transform="matrix(0.06172839506172839,0,0,0.06172839506172839,51.7283950617284,0)" xlink:href="#aR"/><use transform="matrix(0.06172839506172839,0,0,0.06172839506172839,64.07407407407408,0)" xlink:href="#ai"/><use transform="matrix(0.06172839506172839,0,0,0.06172839506172839,76.41975308641976,0)" xlink:href="#ac"/><use transform="matrix(0.06172839506172839,0,0,0.06172839506172839,83.76543209876544,0)" xlink:href="#ae"/><use transform="matrix(0.06172839506172839,0,0,0.06172839506172839,96.11111111111113,0)" xlink:href="#af"/><use transform="matrix(0.06172839506172839,0,0,0.06172839506172839,102.28395061728396,0)" xlink:href="#am"/><use transform="matrix(0.06172839506172839,0,0,0.06172839506172839,107.16049382716051,0)" xlink:href="#ah"/><use transform="matrix(0.06172839506172839,0,0,0.06172839506172839,119.50617283950619,0)" xlink:href="#an"/></g><g id="q"><use transform="matrix(0.06172839506172839,0,0,0.06172839506172839,0,0)" xlink:href="#ab"/><use transform="matrix(0.06172839506172839,0,0,0.06172839506172839,15.987654320987653,0)" xlink:href="#ac"/><use transform="matrix(0.06172839506172839,0,0,0.06172839506172839,23.333333333333332,0)" xlink:href="#ad"/><use transform="matrix(0.06172839506172839,0,0,0.06172839506172839,35.67901234567901,0)" xlink:href="#ae"/><use transform="matrix(0.06172839506172839,0,0,0.06172839506172839,48.02469135802469,0)" xlink:href="#af"/><use transform="matrix(0.06172839506172839,0,0,0.06172839506172839,54.19753086419753,0)" xlink:href="#ad"/></g><g id="r"><use transform="matrix(0.06172839506172839,0,0,0.06172839506172839,0,0)" xlink:href="#aI"/><use transform="matrix(0.06172839506172839,0,0,0.06172839506172839,14.814814814814813,0)" xlink:href="#ad"/><use transform="matrix(0.06172839506172839,0,0,0.06172839506172839,27.160493827160494,0)" xlink:href="#ac"/><use transform="matrix(0.06172839506172839,0,0,0.06172839506172839,34.50617283950617,0)" xlink:href="#aO"/><use transform="matrix(0.06172839506172839,0,0,0.06172839506172839,45.61728395061728,0)" xlink:href="#ah"/><use transform="matrix(0.06172839506172839,0,0,0.06172839506172839,57.962962962962955,0)" xlink:href="#an"/><use transform="matrix(0.06172839506172839,0,0,0.06172839506172839,70.30864197530863,0)" xlink:href="#ae"/><use transform="matrix(0.06172839506172839,0,0,0.06172839506172839,82.65432098765432,0)" xlink:href="#ag"/></g><path d="M205 0l-28-72H64L36 0H1l101-248h38L239 0h-34zm-38-99l-47-123c-12 45-31 82-46 123h93" id="aW"/><g id="s"><use transform="matrix(0.06172839506172839,0,0,0.06172839506172839,0,0)" xlink:href="#aW"/><use transform="matrix(0.06172839506172839,0,0,0.06172839506172839,14.814814814814813,0)" xlink:href="#ap"/><use transform="matrix(0.06172839506172839,0,0,0.06172839506172839,25.925925925925924,0)" xlink:href="#ap"/><use transform="matrix(0.06172839506172839,0,0,0.06172839506172839,37.03703703703704,0)" xlink:href="#ad"/><use transform="matrix(0.06172839506172839,0,0,0.06172839506172839,49.382716049382715,0)" xlink:href="#aO"/><use transform="matrix(0.06172839506172839,0,0,0.06172839506172839,60.49382716049382,0)" xlink:href="#aO"/></g><path d="M127-220V0H93v-220H8v-28h204v28h-85" id="aX"/><g id="t"><use transform="matrix(0.06172839506172839,0,0,0.06172839506172839,0,0)" xlink:href="#aX"/><use transform="matrix(0.06172839506172839,0,0,0.06172839506172839,11.049382716049381,0)" xlink:href="#ah"/><use transform="matrix(0.06172839506172839,0,0,0.06172839506172839,23.39506172839506,0)" xlink:href="#aq"/><use transform="matrix(0.06172839506172839,0,0,0.06172839506172839,34.50617283950617,0)" xlink:href="#ad"/><use transform="matrix(0.06172839506172839,0,0,0.06172839506172839,46.85185185185185,0)" xlink:href="#an"/></g><path d="M24-248c93 1 206-16 204 79-1 75-69 88-152 82V0H24v-248zm52 121c47 0 100 7 100-41 0-47-54-39-100-39v80" id="aY"/><path d="M135-150c-39-12-60 13-60 57V0H25l-1-190h47c2 13-1 29 3 40 6-28 27-53 61-41v41" id="aZ"/><path d="M185-48c-13 30-37 53-82 52C43 2 14-33 14-96s30-98 90-98c62 0 83 45 84 108H66c0 31 8 55 39 56 18 0 30-7 34-22zm-45-69c5-46-57-63-70-21-2 6-4 13-4 21h74" id="ba"/><path d="M14-72v-43h91v43H14" id="bb"/><path d="M24-248c120-7 223 5 221 122C244-46 201 0 124 0H24v-248zM76-40c74 7 117-18 117-86 0-67-45-88-117-82v168" id="bc"/><path d="M135-194c53 0 70 44 70 98 0 56-19 98-73 100-31 1-45-17-59-34 3 33 2 69 2 105H25l-1-265h48c2 10 0 23 3 31 11-24 29-35 60-35zM114-30c33 0 39-31 40-66 0-38-9-64-40-64-56 0-55 130 0 130" id="bd"/><path d="M25 0v-261h50V0H25" id="be"/><path d="M110-194c64 0 96 36 96 99 0 64-35 99-97 99-61 0-95-36-95-99 0-62 34-99 96-99zm-1 164c35 0 45-28 45-65 0-40-10-65-43-65-34 0-45 26-45 65 0 36 10 65 43 65" id="bf"/><path d="M123 10C108 53 80 86 19 72V37c35 8 53-11 59-39L3-190h52l48 148c12-52 28-100 44-148h51" id="bg"/><path d="M220-157c-53 9-28 100-34 157h-49v-107c1-27-5-49-29-50C55-147 81-57 75 0H25l-1-190h47c2 12-1 28 3 38 10-53 101-56 108 0 13-22 24-43 59-42 82 1 51 116 57 194h-49v-107c-1-25-5-48-29-50" id="bh"/><path d="M135-194c87-1 58 113 63 194h-50c-7-57 23-157-34-157-59 0-34 97-39 157H25l-1-190h47c2 12-1 28 3 38 12-26 28-41 61-42" id="bi"/><path d="M115-3C79 11 28 4 28-45v-112H4v-33h27l15-45h31v45h36v33H77v99c-1 23 16 31 38 25v30" id="bj"/><g id="v"><use transform="matrix(0.06172839506172839,0,0,0.06172839506172839,0,0)" xlink:href="#aY"/><use transform="matrix(0.06172839506172839,0,0,0.06172839506172839,14.814814814814813,0)" xlink:href="#aZ"/><use transform="matrix(0.06172839506172839,0,0,0.06172839506172839,23.456790123456788,0)" xlink:href="#ba"/><use transform="matrix(0.06172839506172839,0,0,0.06172839506172839,35.80246913580247,0)" xlink:href="#bb"/><use transform="matrix(0.06172839506172839,0,0,0.06172839506172839,43.148148148148145,0)" xlink:href="#bc"/><use transform="matrix(0.06172839506172839,0,0,0.06172839506172839,59.1358024691358,0)" xlink:href="#ba"/><use transform="matrix(0.06172839506172839,0,0,0.06172839506172839,71.48148148148148,0)" xlink:href="#bd"/><use transform="matrix(0.06172839506172839,0,0,0.06172839506172839,85,0)" xlink:href="#be"/><use transform="matrix(0.06172839506172839,0,0,0.06172839506172839,91.17283950617283,0)" xlink:href="#bf"/><use transform="matrix(0.06172839506172839,0,0,0.06172839506172839,104.69135802469135,0)" xlink:href="#bg"/><use transform="matrix(0.06172839506172839,0,0,0.06172839506172839,117.03703703703704,0)" xlink:href="#bh"/><use transform="matrix(0.06172839506172839,0,0,0.06172839506172839,136.79012345679013,0)" xlink:href="#ba"/><use transform="matrix(0.06172839506172839,0,0,0.06172839506172839,149.1358024691358,0)" xlink:href="#bi"/><use transform="matrix(0.06172839506172839,0,0,0.06172839506172839,162.6543209876543,0)" xlink:href="#bj"/></g><path d="M27 0v-27h64v-190l-56 39v-29l58-41h29v221h61V0H27" id="bk"/><use transform="matrix(0.06172839506172839,0,0,0.06172839506172839,0,0)" xlink:href="#bk" id="w"/><path d="M101-251c82-7 93 87 43 132L82-64C71-53 59-42 53-27h129V0H18c2-99 128-94 128-182 0-28-16-43-45-43s-46 15-49 41l-32-3c6-41 34-60 81-64" id="bl"/><use transform="matrix(0.06172839506172839,0,0,0.06172839506172839,0,0)" xlink:href="#bl" id="x"/><path d="M126-127c33 6 58 20 58 59 0 88-139 92-164 29-3-8-5-16-6-25l32-3c6 27 21 44 54 44 32 0 52-15 52-46 0-38-36-46-79-43v-28c39 1 72-4 72-42 0-27-17-43-46-43-28 0-47 15-49 41l-32-3c6-42 35-63 81-64 48-1 79 21 79 65 0 36-21 52-52 59" id="bm"/><use transform="matrix(0.06172839506172839,0,0,0.06172839506172839,0,0)" xlink:href="#bm" id="y"/><g id="z"><use transform="matrix(0.06172839506172839,0,0,0.06172839506172839,0,0)" xlink:href="#bc"/><use transform="matrix(0.06172839506172839,0,0,0.06172839506172839,15.987654320987653,0)" xlink:href="#ba"/><use transform="matrix(0.06172839506172839,0,0,0.06172839506172839,28.333333333333332,0)" xlink:href="#bd"/><use transform="matrix(0.06172839506172839,0,0,0.06172839506172839,41.85185185185185,0)" xlink:href="#be"/><use transform="matrix(0.06172839506172839,0,0,0.06172839506172839,48.02469135802469,0)" xlink:href="#bf"/><use transform="matrix(0.06172839506172839,0,0,0.06172839506172839,61.54320987654321,0)" xlink:href="#bg"/><use transform="matrix(0.06172839506172839,0,0,0.06172839506172839,73.88888888888889,0)" xlink:href="#bh"/><use transform="matrix(0.06172839506172839,0,0,0.06172839506172839,93.64197530864197,0)" xlink:href="#ba"/><use transform="matrix(0.06172839506172839,0,0,0.06172839506172839,105.98765432098766,0)" xlink:href="#bi"/><use transform="matrix(0.06172839506172839,0,0,0.06172839506172839,119.50617283950618,0)" xlink:href="#bj"/></g><path d="M137-138c1-29-70-34-71-4 15 46 118 7 119 86 1 83-164 76-172 9l43-7c4 19 20 25 44 25 33 8 57-30 24-41C81-84 22-81 20-136c-2-80 154-74 161-7" id="bn"/><g id="A"><use transform="matrix(0.06172839506172839,0,0,0.06172839506172839,0,0)" xlink:href="#aY"/><use transform="matrix(0.06172839506172839,0,0,0.06172839506172839,14.814814814814813,0)" xlink:href="#bf"/><use transform="matrix(0.06172839506172839,0,0,0.06172839506172839,28.33333333333333,0)" xlink:href="#bn"/><use transform="matrix(0.06172839506172839,0,0,0.06172839506172839,40.679012345679006,0)" xlink:href="#bj"/><use transform="matrix(0.06172839506172839,0,0,0.06172839506172839,48.02469135802468,0)" xlink:href="#bb"/><use transform="matrix(0.06172839506172839,0,0,0.06172839506172839,55.37037037037036,0)" xlink:href="#bc"/><use transform="matrix(0.06172839506172839,0,0,0.06172839506172839,71.35802469135801,0)" xlink:href="#ba"/><use transform="matrix(0.06172839506172839,0,0,0.06172839506172839,83.7037037037037,0)" xlink:href="#bd"/><use transform="matrix(0.06172839506172839,0,0,0.06172839506172839,97.22222222222221,0)" xlink:href="#be"/><use transform="matrix(0.06172839506172839,0,0,0.06172839506172839,103.39506172839505,0)" xlink:href="#bf"/><use transform="matrix(0.06172839506172839,0,0,0.06172839506172839,116.91358024691357,0)" xlink:href="#bg"/><use transform="matrix(0.06172839506172839,0,0,0.06172839506172839,129.25925925925924,0)" xlink:href="#bh"/><use transform="matrix(0.06172839506172839,0,0,0.06172839506172839,149.01234567901233,0)" xlink:href="#ba"/><use transform="matrix(0.06172839506172839,0,0,0.06172839506172839,161.358024691358,0)" xlink:href="#bi"/><use transform="matrix(0.06172839506172839,0,0,0.06172839506172839,174.8765432098765,0)" xlink:href="#bj"/></g><g id="B"><use transform="matrix(0.06172839506172839,0,0,0.06172839506172839,0,0)" xlink:href="#aI"/><use transform="matrix(0.06172839506172839,0,0,0.06172839506172839,14.814814814814813,0)" xlink:href="#ai"/><use transform="matrix(0.06172839506172839,0,0,0.06172839506172839,27.160493827160494,0)" xlink:href="#aO"/><use transform="matrix(0.06172839506172839,0,0,0.06172839506172839,38.27160493827161,0)" xlink:href="#aH"/></g><path d="M232-93c-1 65-40 97-104 97C67 4 28-28 28-90v-158h33c8 89-33 224 67 224 102 0 64-133 71-224h33v155" id="bo"/><g id="C"><use transform="matrix(0.06172839506172839,0,0,0.06172839506172839,0,0)" xlink:href="#bo"/><use transform="matrix(0.06172839506172839,0,0,0.06172839506172839,15.987654320987653,0)" xlink:href="#aN"/><use transform="matrix(0.06172839506172839,0,0,0.06172839506172839,28.333333333333332,0)" xlink:href="#aj"/><use transform="matrix(0.06172839506172839,0,0,0.06172839506172839,40.67901234567901,0)" xlink:href="#ae"/><use transform="matrix(0.06172839506172839,0,0,0.06172839506172839,53.02469135802469,0)" xlink:href="#af"/><use transform="matrix(0.06172839506172839,0,0,0.06172839506172839,59.19753086419753,0)" xlink:href="#ad"/><use transform="matrix(0.06172839506172839,0,0,0.06172839506172839,71.54320987654322,0)" xlink:href="#aj"/></g><path d="M141 0L90-78 38 0H4l68-98-65-92h35l48 74 47-74h35l-64 92 68 98h-35" id="bp"/><g id="D"><use transform="matrix(0.06172839506172839,0,0,0.06172839506172839,0,0)" xlink:href="#aS"/><use transform="matrix(0.06172839506172839,0,0,0.06172839506172839,14.814814814814813,0)" xlink:href="#bp"/><use transform="matrix(0.06172839506172839,0,0,0.06172839506172839,25.925925925925924,0)" xlink:href="#af"/><use transform="matrix(0.06172839506172839,0,0,0.06172839506172839,32.098765432098766,0)" xlink:href="#ad"/><use transform="matrix(0.06172839506172839,0,0,0.06172839506172839,44.44444444444444,0)" xlink:href="#ac"/><use transform="matrix(0.06172839506172839,0,0,0.06172839506172839,51.79012345679012,0)" xlink:href="#an"/><use transform="matrix(0.06172839506172839,0,0,0.06172839506172839,64.1358024691358,0)" xlink:href="#ae"/><use transform="matrix(0.06172839506172839,0,0,0.06172839506172839,76.48148148148148,0)" xlink:href="#ag"/></g><g id="E"><use transform="matrix(0.06172839506172839,0,0,0.06172839506172839,0,0)" xlink:href="#aI"/><use transform="matrix(0.06172839506172839,0,0,0.06172839506172839,14.814814814814813,0)" xlink:href="#ae"/><use transform="matrix(0.06172839506172839,0,0,0.06172839506172839,27.160493827160494,0)" xlink:href="#ap"/><use transform="matrix(0.06172839506172839,0,0,0.06172839506172839,38.27160493827161,0)" xlink:href="#aq"/><use transform="matrix(0.06172839506172839,0,0,0.06172839506172839,49.38271604938272,0)" xlink:href="#ae"/><use transform="matrix(0.06172839506172839,0,0,0.06172839506172839,61.7283950617284,0)" xlink:href="#aR"/><use transform="matrix(0.06172839506172839,0,0,0.06172839506172839,74.07407407407408,0)" xlink:href="#ad"/></g><path d="M145-31C134-9 116 4 85 4 32 4 16-35 15-94c0-59 17-99 70-100 32-1 48 14 60 33 0-11-1-24 2-32h30l-1 268h-32zM93-21c41 0 51-33 51-76s-8-73-50-73c-40 0-46 35-46 75s5 74 45 74" id="bq"/><g id="F"><use transform="matrix(0.06172839506172839,0,0,0.06172839506172839,0,0)" xlink:href="#aM"/><use transform="matrix(0.06172839506172839,0,0,0.06172839506172839,15.987654320987653,0)" xlink:href="#ad"/><use transform="matrix(0.06172839506172839,0,0,0.06172839506172839,28.333333333333332,0)" xlink:href="#bq"/><use transform="matrix(0.06172839506172839,0,0,0.06172839506172839,40.67901234567901,0)" xlink:href="#ai"/><use transform="matrix(0.06172839506172839,0,0,0.06172839506172839,53.02469135802469,0)" xlink:href="#ad"/><use transform="matrix(0.06172839506172839,0,0,0.06172839506172839,65.37037037037037,0)" xlink:href="#aO"/><use transform="matrix(0.06172839506172839,0,0,0.06172839506172839,76.48148148148148,0)" xlink:href="#af"/></g><g id="G"><use transform="matrix(0.06172839506172839,0,0,0.06172839506172839,0,0)" xlink:href="#ak"/><use transform="matrix(0.06172839506172839,0,0,0.06172839506172839,13.518518518518517,0)" xlink:href="#am"/><use transform="matrix(0.06172839506172839,0,0,0.06172839506172839,18.39506172839506,0)" xlink:href="#ag"/><use transform="matrix(0.06172839506172839,0,0,0.06172839506172839,23.2716049382716,0)" xlink:href="#ad"/></g><g id="H"><use transform="matrix(0.06172839506172839,0,0,0.06172839506172839,0,0)" xlink:href="#af"/><use transform="matrix(0.06172839506172839,0,0,0.06172839506172839,6.172839506172839,0)" xlink:href="#ah"/></g><g id="I"><use transform="matrix(0.06172839506172839,0,0,0.06172839506172839,0,0)" xlink:href="#aM"/><use transform="matrix(0.06172839506172839,0,0,0.06172839506172839,15.987654320987653,0)" xlink:href="#ad"/><use transform="matrix(0.06172839506172839,0,0,0.06172839506172839,28.333333333333332,0)" xlink:href="#aN"/><use transform="matrix(0.06172839506172839,0,0,0.06172839506172839,40.67901234567901,0)" xlink:href="#ah"/><use transform="matrix(0.06172839506172839,0,0,0.06172839506172839,53.02469135802469,0)" xlink:href="#aO"/><use transform="matrix(0.06172839506172839,0,0,0.06172839506172839,64.1358024691358,0)" xlink:href="#am"/><use transform="matrix(0.06172839506172839,0,0,0.06172839506172839,69.01234567901234,0)" xlink:href="#af"/><use transform="matrix(0.06172839506172839,0,0,0.06172839506172839,75.18518518518518,0)" xlink:href="#ah"/><use transform="matrix(0.06172839506172839,0,0,0.06172839506172839,87.53086419753086,0)" xlink:href="#ac"/><use transform="matrix(0.06172839506172839,0,0,0.06172839506172839,94.87654320987654,0)" xlink:href="#aP"/></g><g id="J"><use transform="matrix(0.06172839506172839,0,0,0.06172839506172839,0,0)" xlink:href="#ab"/><use transform="matrix(0.06172839506172839,0,0,0.06172839506172839,15.987654320987653,0)" xlink:href="#ah"/><use transform="matrix(0.06172839506172839,0,0,0.06172839506172839,28.333333333333332,0)" xlink:href="#aj"/><use transform="matrix(0.06172839506172839,0,0,0.06172839506172839,40.67901234567901,0)" xlink:href="#ad"/><use transform="matrix(0.06172839506172839,0,0,0.06172839506172839,53.02469135802469,0)" xlink:href="#aI"/><use transform="matrix(0.06172839506172839,0,0,0.06172839506172839,67.8395061728395,0)" xlink:href="#am"/><use transform="matrix(0.06172839506172839,0,0,0.06172839506172839,72.71604938271605,0)" xlink:href="#aN"/><use transform="matrix(0.06172839506172839,0,0,0.06172839506172839,85.06172839506173,0)" xlink:href="#ad"/><use transform="matrix(0.06172839506172839,0,0,0.06172839506172839,97.40740740740742,0)" xlink:href="#ag"/><use transform="matrix(0.06172839506172839,0,0,0.06172839506172839,102.28395061728396,0)" xlink:href="#am"/><use transform="matrix(0.06172839506172839,0,0,0.06172839506172839,107.16049382716051,0)" xlink:href="#an"/><use transform="matrix(0.06172839506172839,0,0,0.06172839506172839,119.50617283950619,0)" xlink:href="#ad"/></g><g id="K"><use transform="matrix(0.06172839506172839,0,0,0.06172839506172839,0,0)" xlink:href="#ab"/><use transform="matrix(0.06172839506172839,0,0,0.06172839506172839,15.987654320987653,0)" xlink:href="#ag"/><use transform="matrix(0.06172839506172839,0,0,0.06172839506172839,20.864197530864196,0)" xlink:href="#ah"/><use transform="matrix(0.06172839506172839,0,0,0.06172839506172839,33.20987654320987,0)" xlink:href="#an"/><use transform="matrix(0.06172839506172839,0,0,0.06172839506172839,45.55555555555555,0)" xlink:href="#ad"/><use transform="matrix(0.06172839506172839,0,0,0.06172839506172839,57.90123456790123,0)" xlink:href="#aO"/></g><g id="L"><use transform="matrix(0.06172839506172839,0,0,0.06172839506172839,0,0)" xlink:href="#ae"/><use transform="matrix(0.06172839506172839,0,0,0.06172839506172839,12.345679012345679,0)" xlink:href="#an"/><use transform="matrix(0.06172839506172839,0,0,0.06172839506172839,24.691358024691358,0)" xlink:href="#aj"/></g><g id="M"><use transform="matrix(0.06172839506172839,0,0,0.06172839506172839,0,0)" xlink:href="#aI"/><use transform="matrix(0.06172839506172839,0,0,0.06172839506172839,14.814814814814813,0)" xlink:href="#ad"/><use transform="matrix(0.06172839506172839,0,0,0.06172839506172839,27.160493827160494,0)" xlink:href="#ac"/><use transform="matrix(0.06172839506172839,0,0,0.06172839506172839,34.50617283950617,0)" xlink:href="#aQ"/><use transform="matrix(0.06172839506172839,0,0,0.06172839506172839,40.67901234567901,0)" xlink:href="#ah"/><use transform="matrix(0.06172839506172839,0,0,0.06172839506172839,53.02469135802469,0)" xlink:href="#ac"/><use transform="matrix(0.06172839506172839,0,0,0.06172839506172839,60.37037037037037,0)" xlink:href="#al"/></g><g id="N"><use transform="matrix(0.06172839506172839,0,0,0.06172839506172839,0,0)" xlink:href="#ao"/><use transform="matrix(0.06172839506172839,0,0,0.06172839506172839,14.814814814814813,0)" xlink:href="#ad"/><use transform="matrix(0.06172839506172839,0,0,0.06172839506172839,27.160493827160494,0)" xlink:href="#ap"/><use transform="matrix(0.06172839506172839,0,0,0.06172839506172839,38.27160493827161,0)" xlink:href="#ai"/><use transform="matrix(0.06172839506172839,0,0,0.06172839506172839,50.617283950617285,0)" xlink:href="#ac"/><use transform="matrix(0.06172839506172839,0,0,0.06172839506172839,57.96296296296296,0)" xlink:href="#am"/><use transform="matrix(0.06172839506172839,0,0,0.06172839506172839,62.839506172839506,0)" xlink:href="#af"/><use transform="matrix(0.06172839506172839,0,0,0.06172839506172839,69.01234567901234,0)" xlink:href="#aP"/></g><g id="O"><use transform="matrix(0.06172839506172839,0,0,0.06172839506172839,0,0)" xlink:href="#ao"/><use transform="matrix(0.06172839506172839,0,0,0.06172839506172839,14.814814814814813,0)" xlink:href="#ap"/><use transform="matrix(0.06172839506172839,0,0,0.06172839506172839,25.925925925925924,0)" xlink:href="#ae"/><use transform="matrix(0.06172839506172839,0,0,0.06172839506172839,38.2716049382716,0)" xlink:href="#an"/><use transform="matrix(0.06172839506172839,0,0,0.06172839506172839,50.61728395061728,0)" xlink:href="#aO"/></g><path d="M30-248c118-7 216 8 213 122C240-48 200 0 122 0H30v-248zM63-27c89 8 146-16 146-99s-60-101-146-95v194" id="br"/><g id="Q"><use transform="matrix(0.06172839506172839,0,0,0.06172839506172839,0,0)" xlink:href="#br"/><use transform="matrix(0.06172839506172839,0,0,0.06172839506172839,15.987654320987653,0)" xlink:href="#ad"/><use transform="matrix(0.06172839506172839,0,0,0.06172839506172839,28.333333333333332,0)" xlink:href="#aN"/><use transform="matrix(0.06172839506172839,0,0,0.06172839506172839,40.67901234567901,0)" xlink:href="#ag"/><use transform="matrix(0.06172839506172839,0,0,0.06172839506172839,45.55555555555556,0)" xlink:href="#ah"/><use transform="matrix(0.06172839506172839,0,0,0.06172839506172839,57.901234567901234,0)" xlink:href="#aP"/></g><path d="M30 0v-248h33v221h125V0H30" id="bs"/><g id="R"><use transform="matrix(0.06172839506172839,0,0,0.06172839506172839,0,0)" xlink:href="#bs"/><use transform="matrix(0.06172839506172839,0,0,0.06172839506172839,12.345679012345679,0)" xlink:href="#ae"/><use transform="matrix(0.06172839506172839,0,0,0.06172839506172839,24.691358024691358,0)" xlink:href="#ai"/><use transform="matrix(0.06172839506172839,0,0,0.06172839506172839,37.03703703703704,0)" xlink:href="#an"/><use transform="matrix(0.06172839506172839,0,0,0.06172839506172839,49.382716049382715,0)" xlink:href="#ap"/><use transform="matrix(0.06172839506172839,0,0,0.06172839506172839,60.49382716049382,0)" xlink:href="#aH"/></g><path d="M240 0l2-218c-23 76-54 145-80 218h-23L58-218 59 0H30v-248h44l77 211c21-75 51-140 76-211h43V0h-30" id="bt"/><g id="S"><use transform="matrix(0.06172839506172839,0,0,0.06172839506172839,0,0)" xlink:href="#ao"/><use transform="matrix(0.06172839506172839,0,0,0.06172839506172839,14.814814814814813,0)" xlink:href="#ae"/><use transform="matrix(0.06172839506172839,0,0,0.06172839506172839,27.160493827160494,0)" xlink:href="#aR"/><use transform="matrix(0.06172839506172839,0,0,0.06172839506172839,39.50617283950617,0)" xlink:href="#ad"/><use transform="matrix(0.06172839506172839,0,0,0.06172839506172839,51.85185185185185,0)" xlink:href="#bt"/><use transform="matrix(0.06172839506172839,0,0,0.06172839506172839,70.30864197530863,0)" xlink:href="#ae"/><use transform="matrix(0.06172839506172839,0,0,0.06172839506172839,82.65432098765432,0)" xlink:href="#aq"/><use transform="matrix(0.06172839506172839,0,0,0.06172839506172839,93.76543209876543,0)" xlink:href="#ad"/><use transform="matrix(0.06172839506172839,0,0,0.06172839506172839,106.11111111111111,0)" xlink:href="#ac"/></g><g id="T"><use transform="matrix(0.06172839506172839,0,0,0.06172839506172839,0,0)" xlink:href="#ao"/><use transform="matrix(0.06172839506172839,0,0,0.06172839506172839,14.814814814814813,0)" xlink:href="#af"/><use transform="matrix(0.06172839506172839,0,0,0.06172839506172839,20.98765432098765,0)" xlink:href="#ai"/><use transform="matrix(0.06172839506172839,0,0,0.06172839506172839,33.33333333333333,0)" xlink:href="#aj"/><use transform="matrix(0.06172839506172839,0,0,0.06172839506172839,45.679012345679006,0)" xlink:href="#am"/><use transform="matrix(0.06172839506172839,0,0,0.06172839506172839,50.55555555555555,0)" xlink:href="#ah"/></g><g id="U"><use transform="matrix(0.06172839506172839,0,0,0.06172839506172839,0,0)" xlink:href="#bo"/><use transform="matrix(0.06172839506172839,0,0,0.06172839506172839,15.987654320987653,0)" xlink:href="#aO"/><use transform="matrix(0.06172839506172839,0,0,0.06172839506172839,27.098765432098766,0)" xlink:href="#ad"/></g><path d="M33 0v-248h34V0H33" id="bu"/><g id="V"><use transform="matrix(0.06172839506172839,0,0,0.06172839506172839,0,0)" xlink:href="#bu"/><use transform="matrix(0.06172839506172839,0,0,0.06172839506172839,6.172839506172839,0)" xlink:href="#an"/><use transform="matrix(0.06172839506172839,0,0,0.06172839506172839,18.51851851851852,0)" xlink:href="#aQ"/><use transform="matrix(0.06172839506172839,0,0,0.06172839506172839,24.691358024691358,0)" xlink:href="#ah"/><use transform="matrix(0.06172839506172839,0,0,0.06172839506172839,37.03703703703704,0)" xlink:href="#ao"/><use transform="matrix(0.06172839506172839,0,0,0.06172839506172839,51.85185185185185,0)" xlink:href="#ad"/><use transform="matrix(0.06172839506172839,0,0,0.06172839506172839,64.19753086419753,0)" xlink:href="#ap"/></g><g id="W"><use transform="matrix(0.06172839506172839,0,0,0.06172839506172839,0,0)" xlink:href="#aT"/><use transform="matrix(0.06172839506172839,0,0,0.06172839506172839,13.148148148148147,0)" xlink:href="#ae"/><use transform="matrix(0.06172839506172839,0,0,0.06172839506172839,25.493827160493826,0)" xlink:href="#ag"/><use transform="matrix(0.06172839506172839,0,0,0.06172839506172839,30.370370370370367,0)" xlink:href="#am"/><use transform="matrix(0.06172839506172839,0,0,0.06172839506172839,35.24691358024691,0)" xlink:href="#aj"/><use transform="matrix(0.06172839506172839,0,0,0.06172839506172839,47.59259259259259,0)" xlink:href="#ae"/><use transform="matrix(0.06172839506172839,0,0,0.06172839506172839,59.938271604938265,0)" xlink:href="#af"/><use transform="matrix(0.06172839506172839,0,0,0.06172839506172839,66.1111111111111,0)" xlink:href="#ad"/><use transform="matrix(0.06172839506172839,0,0,0.06172839506172839,78.45679012345678,0)" xlink:href="#aj"/></g><g id="X"><use transform="matrix(0.06172839506172839,0,0,0.06172839506172839,0,0)" xlink:href="#aV"/><use transform="matrix(0.06172839506172839,0,0,0.06172839506172839,15.987654320987653,0)" xlink:href="#am"/><use transform="matrix(0.06172839506172839,0,0,0.06172839506172839,20.864197530864196,0)" xlink:href="#af"/><use transform="matrix(0.06172839506172839,0,0,0.06172839506172839,27.037037037037035,0)" xlink:href="#aH"/></g><g id="Y"><use transform="matrix(0.06172839506172839,0,0,0.06172839506172839,0,0)" xlink:href="#ao"/><use transform="matrix(0.06172839506172839,0,0,0.06172839506172839,14.814814814814813,0)" xlink:href="#af"/><use transform="matrix(0.06172839506172839,0,0,0.06172839506172839,20.98765432098765,0)" xlink:href="#ai"/><use transform="matrix(0.06172839506172839,0,0,0.06172839506172839,33.33333333333333,0)" xlink:href="#aj"/><use transform="matrix(0.06172839506172839,0,0,0.06172839506172839,45.679012345679006,0)" xlink:href="#am"/><use transform="matrix(0.06172839506172839,0,0,0.06172839506172839,50.55555555555555,0)" xlink:href="#ah"/></g><g id="Z"><use transform="matrix(0.06172839506172839,0,0,0.06172839506172839,0,0)" xlink:href="#aU"/><use transform="matrix(0.06172839506172839,0,0,0.06172839506172839,15.987654320987653,0)" xlink:href="#ah"/><use transform="matrix(0.06172839506172839,0,0,0.06172839506172839,28.333333333333332,0)" xlink:href="#af"/><use transform="matrix(0.06172839506172839,0,0,0.06172839506172839,34.50617283950617,0)" xlink:href="#ad"/><use transform="matrix(0.06172839506172839,0,0,0.06172839506172839,46.85185185185185,0)" xlink:href="#aL"/><use transform="matrix(0.06172839506172839,0,0,0.06172839506172839,59.197530864197525,0)" xlink:href="#ah"/><use transform="matrix(0.06172839506172839,0,0,0.06172839506172839,71.5432098765432,0)" xlink:href="#ah"/><use transform="matrix(0.06172839506172839,0,0,0.06172839506172839,83.88888888888889,0)" xlink:href="#aq"/></g><path d="M155-56V0h-30v-56H8v-25l114-167h33v167h35v25h-35zm-30-156c-27 46-58 90-88 131h88v-131" id="bv"/><use transform="matrix(0.06172839506172839,0,0,0.06172839506172839,0,0)" xlink:href="#bv" id="aa"/></defs></g></svg>